<svg xmlns="http://www.w3.org/2000/svg" width="980" height="84" viewBox="0 0 980 84" role="img" aria-label="Let's Connect" xmlns:c2pa="http://c2pa.org/manifest"><metadata><c2pa:manifest>AAAWgmp1bWIAAAAeanVtZGMycGEAEQAQgAAAqgA4m3EDYzJwYQAAABZcanVtYgAAAEdqdW1kYzJtYQARABCAAACqADibcQN1cm46YzJwYTpmYjFmOWNmYS04YjliLTRiNmEtODExOC1jN2U3ZDc5N2Q1OTgAAAADl2p1bWIAAAApanVtZGMyYXMAEQAQgAAAqgA4m3EDYzJwYS5hc3NlcnRpb25zAAAAALxqdW1iAAAARGp1bWRjYm9yABEAEIAAAKoAOJtxE2MycGEuaW5ncmVkaWVudC52MwAAAAAYYzJzaKaG16BZhb0V7dHft544I98AAABwY2JvcqNpZGM6Zm9ybWF0bWltYWdlL3N2Zyt4bWxqaW5zdGFuY2VJRHgseG1wOmlpZDo0MWMxYWVhZS1mNWUwLTRkNWMtODZjYy02OTMyZjA3YmI1ZDdscmVsYXRpb25zaGlwaHBhcmVudE9mAAAB4mp1bWIAAABBanVtZGNib3IAEQAQgAAAqgA4m3ETYzJwYS5hY3Rpb25zLnYyAAAAABhjMnNoPi1AVLzwzuT43uGnxRIRowAAAZljYm9yomdhY3Rpb25zgqJmYWN0aW9ua2MycGEub3BlbmVkanBhcmFtZXRlcnOha2luZ3JlZGllbnRzgaJjdXJseC1zZWxmI2p1bWJmPWMycGEuYXNzZXJ0aW9ucy9jMnBhLmluZ3JlZGllbnQudjNkaGFzaFggAg32qs8BTZSLJVjvY6JXGDP8zupokq7QMeoFjdLWA1GkZmFjdGlvbngdY29tLmFudGhyb3BpYy5jbGF1ZGUucHJvdmlkZWRqcGFyYW1ldGVyc6F4H2NvbS5hbnRocm9waWMub3JpZ2luLWNvbmZpZGVuY2VndW5rbm93bmtkZXNjcmlwdGlvbnhmQ2xhdWRlIHByb3ZpZGVkIHRoaXMgZmlsZSBhdCB0aGUgcmVxdWVzdCBvZiBhIHVzZXIgYW5kIG1heSBoYXZlIGNyZWF0ZWQgb3IgbW9kaWZpZWQgdGhlIGZpbGUgY29udGVudHMubXNvZnR3YXJlQWdlbnShZG5hbWVmQ2xhdWRlcmFsbEFjdGlvbnNJbmNsdWRlZPUAAADIanVtYgAAAEBqdW1kY2JvcgARABCAAACqADibcRNjMnBhLmhhc2guZGF0YQAAAAAYYzJzaCiV0r6mMvuXl0sUFyL5mE4AAACAY2JvcqVjYWxnZnNoYTI1NmNwYWRNAAAAAAAAAAAAAAAAAGRoYXNoWCBpjV1g8MjSJ2M5X5Wcm1cFZ2V3kZPp/SZsq33Xv9+5CGRuYW1lbmp1bWJmIG1hbmlmZXN0amV4Y2x1c2lvbnOBomVzdGFydBi6Zmxlbmd0aBkeBAAAAj5qdW1iAAAAJ2p1bWRjMmNsABEAEIAAAKoAOJtxA2MycGEuY2xhaW0udjIAAAACD2Nib3KlY2FsZ2ZzaGEyNTZpc2lnbmF0dXJleE1zZWxmI2p1bWJmPS9jMnBhL3VybjpjMnBhOmZiMWY5Y2ZhLThiOWItNGI2YS04MTE4LWM3ZTdkNzk3ZDU5OC9jMnBhLnNpZ25hdHVyZWppbnN0YW5jZUlEeCx4bXA6aWlkOjc5YzE1NTY1LTdhZTItNDhjOS1hMGYxLTRhMjA1NGRjNWYzNXJjcmVhdGVkX2Fzc2VydGlvbnODomN1cmx4LXNlbGYjanVtYmY9YzJwYS5hc3NlcnRpb25zL2MycGEuaW5ncmVkaWVudC52M2RoYXNoWCACDfaqzwFNlIslWO9jolcYM/zO6miSrtAx6gWN0tYDUaJjdXJseCpzZWxmI2p1bWJmPWMycGEuYXNzZXJ0aW9ucy9jMnBhLmFjdGlvbnMudjJkaGFzaFgggkHAz22xQz3MgerUj3xZX+rDhylXvSpkEnWnsrKvdZ2iY3VybHgpc2VsZiNqdW1iZj1jMnBhLmFzc2VydGlvbnMvYzJwYS5oYXNoLmRhdGFkaGFzaFggLdtygyPn+Jf4Jr9IYp6GDkrEQXoJyPZpu/V8v12Tb+h0Y2xhaW1fZ2VuZXJhdG9yX2luZm+jZG5hbWVvQW50aHJvcGljIEZpbGVzZ3ZlcnNpb25lMS4wLjBrc3BlY1ZlcnNpb25lMi40LjAAABA4anVtYgAAAChqdW1kYzJjcwARABCAAACqADibcQNjMnBhLnNpZ25hdHVyZQAAABAIY2JvctKEWQISogEmGCFZAgowggIGMIIBjaADAgECAhRA5aAK7sI50L64g/oGQgU9Z1UTADAKBggqhkjOPQQDAzBJMRcwFQYDVQQKEw5BbnRocm9waWMsIFBCQzEuMCwGA1UEAxMlQW50aHJvcGljIENvbnRlbnQgQ3JlZGVudGlhbHMgUm9vdCBDQTAeFw0yNjA4MDcxODQzNTZaFw0yODA4MDYxOTQzNTZaMEQxFzAVBgNVBAoTDkFudGhyb3BpYywgUEJDMSkwJwYDVQQDEyBBbnRocm9waWMgQ2xhdWRlIENvbnRlbnQgU2lnbmluZzBZMBMGByqGSM49AgEGCCqGSM49AwEHA0IABJh6CmvLUBgFFNU0vUKlOVtE6djd17L5SuwX0LemFisBM3dkd/3cyjxFA3Qo5S46fX0/ihY0VZ7mfb9KF703t5OjWDBWMA4GA1UdDwEB/wQEAwIHgDAVBgNVHSUEDjAMBgorBgEEAYPoXgIBMAwGA1UdEwEB/wQCMAAwHwYDVR0jBBgwFoAUzlHiBIFOZFsj+OPEz5o+nMHXXMIwCgYIKoZIzj0EAwMDZwAwZAIwMXMdFJ4BetLLVY7ORuE9noqbbAZOZn/aArXyTwFAZfKrPzxF2vPoJNf1+UCdg1XGAjBwX1zd9WGqYkqmL5SFqw1QySjr1zJfpJM9+1rdDwSPLMOPOjKuiXjoU/pUUeG9RwmhY3BhZFkNngAAAAAAAAAAAAAAAAAAAAAAAAAAAAAAAAAAAAAAAAAAAAAAAAAAAAAAAAAAAAAAAAAAAAAAAAAAAAAAAAAAAAAAAAAAAAAAAAAAAAAAAAAAAAAAAAAAAAAAAAAAAAAAAAAAAAAAAAAAAAAAAAAAAAAAAAAAAAAAAAAAAAAAAAAAAAAAAAAAAAAAAAAAAAAAAAAAAAAAAAAAAAAAAAAAAAAAAAAAAAAAAAAAAAAAAAAAAAAAAAAAAAAAAAAAAAAAAAAAAAAAAAAAAAAAAAAAAAAAAAAAAAAAAAAAAAAAAAAAAAAAAAAAAAAAAAAAAAAAAAAAAAAAAAAAAAAAAAAAAAAAAAAAAAAAAAAAAAAAAAAAAAAAAAAAAAAAAAAAAAAAAAAAAAAAAAAAAAAAAAAAAAAAAAAAAAAAAAAAAAAAAAAAAAAAAAAAAAAAAAAAAAAAAAAAAAAAAAAAAAAAAAAAAAAAAAAAAAAAAAAAAAAAAAAAAAAAAAAAAAAAAAAAAAAAAAAAAAAAAAAAAAAAAAAAAAAAAAAAAAAAAAAAAAAAAAAAAAAAAAAAAAAAAAAAAAAAAAAAAAAAAAAAAAAAAAAAAAAAAAAAAAAAAAAAAAAAAAAAAAAAAAAAAAAAAAAAAAAAAAAAAAAAAAAAAAAAAAAAAAAAAAAAAAAAAAAAAAAAAAAAAAAAAAAAAAAAAAAAAAAAAAAAAAAAAAAAAAAAAAAAAAAAAAAAAAAAAAAAAAAAAAAAAAAAAAAAAAAAAAAAAAAAAAAAAAAAAAAAAAAAAAAAAAAAAAAAAAAAAAAAAAAAAAAAAAAAAAAAAAAAAAAAAAAAAAAAAAAAAAAAAAAAAAAAAAAAAAAAAAAAAAAAAAAAAAAAAAAAAAAAAAAAAAAAAAAAAAAAAAAAAAAAAAAAAAAAAAAAAAAAAAAAAAAAAAAAAAAAAAAAAAAAAAAAAAAAAAAAAAAAAAAAAAAAAAAAAAAAAAAAAAAAAAAAAAAAAAAAAAAAAAAAAAAAAAAAAAAAAAAAAAAAAAAAAAAAAAAAAAAAAAAAAAAAAAAAAAAAAAAAAAAAAAAAAAAAAAAAAAAAAAAAAAAAAAAAAAAAAAAAAAAAAAAAAAAAAAAAAAAAAAAAAAAAAAAAAAAAAAAAAAAAAAAAAAAAAAAAAAAAAAAAAAAAAAAAAAAAAAAAAAAAAAAAAAAAAAAAAAAAAAAAAAAAAAAAAAAAAAAAAAAAAAAAAAAAAAAAAAAAAAAAAAAAAAAAAAAAAAAAAAAAAAAAAAAAAAAAAAAAAAAAAAAAAAAAAAAAAAAAAAAAAAAAAAAAAAAAAAAAAAAAAAAAAAAAAAAAAAAAAAAAAAAAAAAAAAAAAAAAAAAAAAAAAAAAAAAAAAAAAAAAAAAAAAAAAAAAAAAAAAAAAAAAAAAAAAAAAAAAAAAAAAAAAAAAAAAAAAAAAAAAAAAAAAAAAAAAAAAAAAAAAAAAAAAAAAAAAAAAAAAAAAAAAAAAAAAAAAAAAAAAAAAAAAAAAAAAAAAAAAAAAAAAAAAAAAAAAAAAAAAAAAAAAAAAAAAAAAAAAAAAAAAAAAAAAAAAAAAAAAAAAAAAAAAAAAAAAAAAAAAAAAAAAAAAAAAAAAAAAAAAAAAAAAAAAAAAAAAAAAAAAAAAAAAAAAAAAAAAAAAAAAAAAAAAAAAAAAAAAAAAAAAAAAAAAAAAAAAAAAAAAAAAAAAAAAAAAAAAAAAAAAAAAAAAAAAAAAAAAAAAAAAAAAAAAAAAAAAAAAAAAAAAAAAAAAAAAAAAAAAAAAAAAAAAAAAAAAAAAAAAAAAAAAAAAAAAAAAAAAAAAAAAAAAAAAAAAAAAAAAAAAAAAAAAAAAAAAAAAAAAAAAAAAAAAAAAAAAAAAAAAAAAAAAAAAAAAAAAAAAAAAAAAAAAAAAAAAAAAAAAAAAAAAAAAAAAAAAAAAAAAAAAAAAAAAAAAAAAAAAAAAAAAAAAAAAAAAAAAAAAAAAAAAAAAAAAAAAAAAAAAAAAAAAAAAAAAAAAAAAAAAAAAAAAAAAAAAAAAAAAAAAAAAAAAAAAAAAAAAAAAAAAAAAAAAAAAAAAAAAAAAAAAAAAAAAAAAAAAAAAAAAAAAAAAAAAAAAAAAAAAAAAAAAAAAAAAAAAAAAAAAAAAAAAAAAAAAAAAAAAAAAAAAAAAAAAAAAAAAAAAAAAAAAAAAAAAAAAAAAAAAAAAAAAAAAAAAAAAAAAAAAAAAAAAAAAAAAAAAAAAAAAAAAAAAAAAAAAAAAAAAAAAAAAAAAAAAAAAAAAAAAAAAAAAAAAAAAAAAAAAAAAAAAAAAAAAAAAAAAAAAAAAAAAAAAAAAAAAAAAAAAAAAAAAAAAAAAAAAAAAAAAAAAAAAAAAAAAAAAAAAAAAAAAAAAAAAAAAAAAAAAAAAAAAAAAAAAAAAAAAAAAAAAAAAAAAAAAAAAAAAAAAAAAAAAAAAAAAAAAAAAAAAAAAAAAAAAAAAAAAAAAAAAAAAAAAAAAAAAAAAAAAAAAAAAAAAAAAAAAAAAAAAAAAAAAAAAAAAAAAAAAAAAAAAAAAAAAAAAAAAAAAAAAAAAAAAAAAAAAAAAAAAAAAAAAAAAAAAAAAAAAAAAAAAAAAAAAAAAAAAAAAAAAAAAAAAAAAAAAAAAAAAAAAAAAAAAAAAAAAAAAAAAAAAAAAAAAAAAAAAAAAAAAAAAAAAAAAAAAAAAAAAAAAAAAAAAAAAAAAAAAAAAAAAAAAAAAAAAAAAAAAAAAAAAAAAAAAAAAAAAAAAAAAAAAAAAAAAAAAAAAAAAAAAAAAAAAAAAAAAAAAAAAAAAAAAAAAAAAAAAAAAAAAAAAAAAAAAAAAAAAAAAAAAAAAAAAAAAAAAAAAAAAAAAAAAAAAAAAAAAAAAAAAAAAAAAAAAAAAAAAAAAAAAAAAAAAAAAAAAAAAAAAAAAAAAAAAAAAAAAAAAAAAAAAAAAAAAAAAAAAAAAAAAAAAAAAAAAAAAAAAAAAAAAAAAAAAAAAAAAAAAAAAAAAAAAAAAAAAAAAAAAAAAAAAAAAAAAAAAAAAAAAAAAAAAAAAAAAAAAAAAAAAAAAAAAAAAAAAAAAAAAAAAAAAAAAAAAAAAAAAAAAAAAAAAAAAAAAAAAAAAAAAAAAAAAAAAAAAAAAAAAAAAAAAAAAAAAAAAAAAAAAAAAAAAAAAAAAAAAAAAAAAAAAAAAAAAAAAAAAAAAAAAAAAAAAAAAAAAAAAAAAAAAAAAAAAAAAAAAAAAAAAAAAAAAAAAAAAAAAAAAAAAAAAAAAAAAAAAAAAAAAAAAAAAAAAAAAAAAAAAAAAAAAAAAAAAAAAAAAAAAAAAAAAAAAAAAAAAAAAAAAAAAAAAAAAAAAAAAAAAAAAAAAAAAAAAAAAAAAAAAAAAAAAAAAAAAAAAAAAAAAAAAAAAAAAAAAAAAAAAAAAAAAAAAAAAAAAAAAAAAAAAAAAAAAAAAAAAAAAAAAAAAAAAAAAAAAAAAAAAAAAAAAAAAAAAAAAAAAAAAAAAAAAAAAAAAAAAAAAAAAAAAAAAAAAAAAAAAAAAAAAAAAAAAAAAAAAAAAAAAAAAAAAAAAAAAAAAAAAAAAAAAAAAAAAAAAAAAAAAAAAAAAAAAAAAAAAAAAAAAAAAAAAAAAAAAAAAAAAAAAAAAAAAAAAAAAAAAAAAAAAAAAAAAAAAAAAAAAAAAAAAAAAAAAAAAAAAAAAAAAAAAAAAAAAAAAAAAAAAAAAAAAAAAAAAAAAAAAAAAAAAAAAAAAAAAAAAAAAAAAAAAAAAAAAAAAAAAAAAAAAAAAAAAAAAAAAAAAAAAAAAAAAAAAAAAAAAAAAAAAAAAAAAAAAAAAAAAAAAAAAAAAAAAAAAAAAAAAAAAAAAAAAAAAAAAAAAAAAAAAAAAAAAAAAAAAAAAAAAAAAAAAAAAAAAAAAAAAAAAAAAAAAAAAAAAAAAAAAAAAAAAAAAAAAAAAAAAAAAAAAAAAAAAAAAAAAAAAAAAAAAAAAAAAAAAAAAAAAAAAAAAAAAAAAAAAAAAAAAAAAAAAAAAAAAAAAAAAAAAAAAAAAAAAAAAAAAAAAAAAAAAAAAAAAAAAAAAAAAAAAAAAAAAAAAAAAAAAAAAAAAAAAAAAAAAAAAAAAAAAAAAAAAAAAAAAAAAAAAAAAAAAAAAAAAAAAAAAAAAAAAAAAAAAAAAAAAAAAAAAAAAAAAAAAAAAAAAAAAAAAAAAAAAAAAAAAAAAAAAAAAAAAAAAAAAAAAAAAAAAAAAAAAAAAAAAAAAAAAAAAAAAAAAAAAAAAAAAAAAAAAAAAAAAAAAAAAAAAAAAAAAAAAAAAAAAAAAAAAAAAAAAAAAAAAAAAAAAAAAAAAAAAAAAAAAAAAAAAAAAAAAAAAAAAAAAAAAAAAAAAAAAAAAAAAAAAAAAAAAAAAAAAAAAAAAAAAAAAAAAAAAAAAAAAAAAAAAAAAAAAAAAAAAAAAAAAAAAAAAAAAAAAAAAAAAAAAAAAAAAAAAAAAAAAAAAAAAAAAAAAAAAAAAAAAAAAAAAAAAAAAAAAAAAAAAAAAAAAAAAAAAAAAAAAAAAAAAAAAAAAAAAAAAAAAAAAAAAAAAAAAAAAAAAAAAAAAAAAAAAAAAAAAAAAAAAAAAAAAAAAAAAAAAAAAAAAPZYQGfQMOLuytuu5DPgaQIlUk7SXiiCNLklEmDdi9M+f29PUrNnOXKe8nC09sTyVLcDAfQuTaNCTtP/l7AkENsWEVo=</c2pa:manifest></metadata>
<rect width="980" height="84" rx="8" fill="#e9d8d4"/>
<rect x="28" y="22" width="6" height="40" rx="3" fill="#8d192b"/>
<g><animateTransform attributeName="transform" type="translate" from="-20 0" to="0 0" dur="0.7s" begin="0s" fill="freeze" calcMode="spline" keySplines="0.2 0.8 0.2 1" keyTimes="0;1"/><animate attributeName="opacity" from="0" to="1" dur="0.7s" begin="0s" fill="freeze"/><g transform="translate(52 58)"><path d="M21.8 -2.6Q22.9 -0.6 22.9 1.2Q22.9 1.6 22.8 2Q22.8 2.3 22.7 2.7Q21.9 2.6 21 2.5Q20.2 2.5 19.3 2.5Q18.2 2.5 17 2.6Q15.9 2.6 14.5 2.8Q13.2 2.9 11.5 3.1Q9.8 3.4 7.5 3.7Q6.4 3.4 5.4 2.3Q4.3 1.2 3.4 -0.3Q3.9 -1.3 4.6 -2.8Q5.2 -4.3 6.2 -6.5Q7.1 -8.6 8.2 -11.5Q9.3 -14.4 10.6 -18.1Q11.5 -20.6 12.1 -22.5Q12.7 -24.4 13.1 -26.2Q13.6 -27.9 14.1 -29.9Q14.5 -31.8 15.1 -34.3Q16.9 -33.9 18.3 -33Q19.6 -32 20.9 -30.1Q20.5 -29.5 19.9 -28.2Q19.3 -26.9 18.5 -25Q17.7 -23 16.7 -20.6Q15.8 -18.2 14.7 -15.5Q13.7 -12.7 12.7 -10.3Q11.8 -8 11 -6Q10.3 -4.1 9.8 -2.7Q9.3 -1.3 9.3 -0.6Q10.1 -0.7 10.7 -0.7Q11.3 -0.8 11.9 -0.9Q12.6 -1 13.3 -1.2Q14.1 -1.3 15.1 -1.6Q16.1 -1.8 16.8 -2Q17.6 -2.2 18.4 -2.3Q19.1 -2.4 19.9 -2.5Q20.7 -2.5 21.8 -2.6ZM43.9 -19Q43.7 -16.2 42.9 -14.1Q42.1 -12.1 40.5 -10.6Q39 -9 36.8 -7.8Q34.6 -6.5 31.6 -5.4Q31.6 -5.1 31.6 -4.8Q31.6 -4.5 31.6 -4.2Q31.6 -3.6 31.7 -2.9Q31.8 -2.3 32 -1.7Q32.2 -1.2 32.7 -0.9Q33.1 -0.5 33.7 -0.5Q35 -0.5 36.2 -1.1Q37.4 -1.6 38.4 -2.4Q39.5 -3.2 40.5 -4.2Q41.4 -5.1 42.1 -5.9Q42.6 -5.5 42.9 -5.1Q40.8 -2.3 38.4 -0.5Q35.9 1.3 33.7 1.8Q30.5 1.4 28.8 -0.5Q27 -2.5 27 -5.2Q27 -7.1 27.5 -9.1Q28.1 -11 29 -12.9Q29.9 -14.7 31.2 -16.3Q32.5 -17.9 33.9 -19.1Q35.4 -20.3 36.9 -21Q38.5 -21.7 40 -21.7Q42.1 -21.4 43.9 -19ZM40.8 -17.5Q39.5 -17.3 38.2 -16.5Q36.8 -15.7 35.7 -14.3Q34.5 -12.9 33.5 -11.1Q32.6 -9.2 32 -7.1Q35.7 -9 38.1 -11.7Q40.6 -14.4 40.8 -17.5ZM48.8 -17.6Q48.5 -17.9 48.3 -18.8Q48.2 -19.7 48.2 -20.3Q49.4 -20.2 50.5 -20.2Q51.6 -20.1 52.5 -20.1Q53.2 -21.4 54 -22.8Q54.8 -24.1 55.5 -25.3Q56.3 -26.4 57 -27.2Q57.6 -28 58 -28.2Q58.5 -28.2 59.2 -28Q59.9 -27.9 60.6 -27.6Q61.4 -27.4 62 -27.1Q62.6 -26.8 62.8 -26.5Q61.4 -24.8 60.4 -23.3Q59.4 -21.8 58.3 -19.9Q59.2 -19.9 60.1 -19.9Q61.1 -20 62.1 -20.1Q62.3 -19.8 62.4 -19.5Q62.6 -19.1 62.6 -18.8Q60.3 -17.9 57.1 -17.8Q55.9 -15.6 55 -13.5Q54.1 -11.3 53.5 -9.2Q52.9 -7.2 52.6 -5.4Q52.2 -3.6 52.2 -2.2Q52.2 -0.2 53.7 0Q55.1 -0.1 56.3 -0.6Q57.6 -1.1 58.6 -1.9Q58.8 -1.5 58.9 -1.2Q58.6 -0.8 57.9 -0.3Q57.3 0.3 56.5 0.8Q55.7 1.3 55 1.7Q54.2 2.1 53.9 2.1Q52.7 2.1 51.6 1.6Q50.4 1.1 49.5 0.5Q48.5 -0.2 47.9 -1.1Q47.3 -1.9 47.3 -2.8Q47.3 -3.9 47.6 -5.5Q47.9 -7.2 48.5 -9.2Q49 -11.2 49.8 -13.3Q50.5 -15.5 51.4 -17.6ZM69 -23.3Q68.8 -23.6 68.5 -24.1Q68.3 -24.6 68.3 -25.1Q68.9 -26.7 69.3 -28.8Q69.8 -30.9 69.8 -33.4Q69.8 -34.6 69.7 -35.8Q69.6 -37 69.3 -38.3Q71.5 -38.2 73.3 -37.4Q75.1 -36.6 75.7 -35.4Q74.9 -31.2 73.3 -28.2Q71.7 -25.1 69 -23.3ZM86.7 -18.3Q86.7 -17.4 86.4 -16.5Q86.2 -15.5 85.8 -14.8Q85.4 -14 85 -13.5Q84.6 -13 84.2 -13Q83.7 -13.1 83.6 -13.7Q83.6 -13.8 83.7 -14.1Q83.9 -14.4 84 -14.8Q84.1 -15.2 84.2 -15.5Q84.4 -15.9 84.4 -16.2Q84.4 -16.8 84.1 -17.3Q83.8 -17.7 83.3 -17.7Q81.4 -17.7 80.5 -15.4Q79.5 -13.1 79.5 -8.6Q79.5 -8.2 79.5 -8.1Q80.5 -8.1 81.3 -8.2Q82 -8.2 82.8 -8.2Q82.8 -8.1 82.8 -7.8Q82.8 -7.4 82.6 -7.2Q81.6 -7 80.9 -6.8Q80.3 -6.7 80 -6.5Q79.7 -6.4 79.6 -6.2Q79.5 -6.1 79.5 -5.8Q79.5 -5.4 79.6 -5.1Q79.6 -4.7 79.6 -4.1Q79.6 -0.3 77.5 2.1Q75.4 4.4 71.7 4.8Q71 4.7 70.3 4.4Q69.6 4.1 69 3.6Q68.4 3.1 67.9 2.5Q67.5 1.8 67.3 1.2Q67.3 -0.6 68 -2.1Q68.8 -3.7 70 -4.9Q71.3 -6.2 73 -6.9Q74.8 -7.7 76.8 -7.8Q76.8 -9 76.5 -10.1Q76.3 -11.2 76.1 -12.2Q75.8 -13.2 75.6 -14.2Q75.3 -15.2 75.3 -16.2Q75.3 -17.4 75.9 -18.7Q76.4 -19.9 77.2 -20.9Q78 -21.9 79.1 -22.7Q80.2 -23.4 81.4 -23.7Q81.9 -23.6 82.8 -22.9Q83.6 -22.2 84.5 -21.4Q85.3 -20.6 85.9 -19.7Q86.6 -18.9 86.7 -18.3ZM71.5 2.7Q72.6 2.2 73.6 1.3Q74.6 0.5 75.3 -0.6Q76.1 -1.7 76.5 -3Q77 -4.2 77 -5.4Q76 -5.3 74.9 -4.6Q73.8 -3.9 72.9 -2.9Q71.9 -1.9 71.3 -0.8Q70.6 0.2 70.6 1Q70.6 2 71.5 2.7ZM99.8 -9Q99.8 -12.2 100.5 -15.3Q101.3 -18.4 102.7 -21.2Q104.1 -24 106 -26.3Q107.9 -28.7 110.1 -30.4Q112.4 -32.1 115 -33Q117.6 -33.9 120.3 -33.9Q123.5 -33.9 125.2 -32.6Q127 -31.3 127 -28.9Q127 -28 126.8 -27Q126.5 -26 126 -25.1Q125.5 -24.1 124.9 -23.3Q124.2 -22.4 123.5 -21.8Q122.3 -21.9 121.4 -22.8Q120.5 -23.7 120.3 -24.9Q121.9 -26.3 122.8 -27.7Q123.8 -29.2 123.8 -30.4Q123.8 -32.4 121.3 -32.4Q120.2 -32.4 119.1 -31.9Q117.9 -31.5 116.8 -30.7Q115.6 -29.9 114.6 -28.8Q113.5 -27.7 112.6 -26.4Q106.2 -17.2 106.2 -7.6Q106.2 -4.2 107.2 -2.1Q108.3 -0 110 0.3Q112 -0.1 115 -2.2Q118.1 -4.3 121.7 -7.6Q122.1 -7.1 122.2 -6.6Q120.9 -4.9 119.5 -3.3Q118 -1.7 116.6 -0.3Q115.2 1 113.9 2Q112.5 3 111.4 3.6Q105.7 3.5 102.7 0.3Q99.8 -2.9 99.8 -9ZM130.9 1.6Q128.3 1.3 126.7 -0.7Q125.2 -2.7 125.2 -5.8Q125.2 -7.7 125.7 -9.7Q126.3 -11.6 127.3 -13.5Q128.3 -15.4 129.7 -17Q131.1 -18.7 132.7 -19.9Q135.2 -21.8 137.4 -21.8Q138.9 -21 140.3 -18.5Q140.5 -18.5 140.7 -18.5Q140.9 -18.5 141.1 -18.5Q143.6 -18.5 143.6 -14.2Q143.6 -11.3 142.6 -8.7Q141.7 -6.1 140 -4Q138.3 -1.9 136 -0.4Q133.7 1 130.9 1.6ZM133.3 -12.9Q132.5 -11.8 131.8 -10.6Q131.1 -9.3 130.6 -8.1Q130.1 -6.8 129.8 -5.6Q129.5 -4.5 129.5 -3.5Q129.5 -2.4 129.9 -1.4Q130.3 -0.4 130.7 -0.3Q132.8 -0.7 134.5 -2Q136.3 -3.3 137.5 -5.2Q138.8 -7 139.5 -9.4Q140.2 -11.8 140.2 -14.5Q140.2 -15.7 140.1 -16.4Q139.9 -17.1 139.6 -17.6Q137.6 -17 136 -15.7Q134.4 -14.4 133.3 -12.9ZM153.2 -22.3Q154.4 -21.9 155.5 -20.7Q156.5 -19.4 157 -17.9Q156.5 -16.7 155.5 -14.9Q154.4 -13.2 153.4 -11.3Q152.3 -9.5 151.5 -7.9Q150.6 -6.3 150.5 -5.2Q151.2 -6 152.1 -7Q153 -8.1 153.8 -9.1Q154.7 -10.1 155.4 -11Q156.2 -11.8 156.6 -12.2Q157.5 -13.2 158.7 -14.4Q159.9 -15.6 161.2 -16.7Q162.5 -17.8 163.8 -18.5Q165.1 -19.3 166.2 -19.3Q167.4 -19.3 168.2 -18.5Q169.1 -17.7 169.5 -16.8Q169.5 -16.7 169.2 -16.5Q168.8 -16.4 168.2 -15.6Q167.5 -14.8 166.7 -13.4Q165.9 -11.9 165.2 -10.2Q164.4 -8.6 163.9 -6.8Q163.4 -5.1 163.4 -3.6Q163.4 -2.5 163.7 -2.2Q164 -1.8 164.5 -1.8Q165 -1.8 165.6 -2.1Q166.2 -2.3 166.5 -2.3Q166.7 -2.2 166.8 -1.9Q166.9 -1.6 166.9 -1.4Q166.5 -1.1 166 -0.7Q165.5 -0.4 165 -0.1Q164.4 0.1 163.9 0.3Q163.3 0.5 162.9 0.5Q161.6 0.5 160.7 0.1Q159.9 -0.3 159.4 -0.9Q158.9 -1.6 158.7 -2.5Q158.6 -3.4 158.6 -4.4Q158.6 -4.9 158.7 -5.6Q158.7 -6.3 159 -7.2Q159.3 -8.2 159.8 -9.5Q160.3 -10.8 161.1 -12.7Q161 -12.7 159.9 -12Q158.7 -11.4 157.4 -10Q155.2 -8 153.5 -5.9Q151.8 -3.9 150 -1.4Q148.9 0 148.2 1Q147.4 2 146.9 2.3Q145.9 1.7 145.5 0.8Q145 -0.2 144.8 -1.3Q144.8 -2.2 145 -3.5Q145.3 -4.8 145.7 -6.5Q146.1 -8.1 146.8 -9.9Q147.4 -11.7 148.2 -13.5Q150 -17.5 151.4 -19.8Q152.9 -22.1 153.2 -22.3ZM178.1 -22.3Q179.3 -21.9 180.3 -20.7Q181.4 -19.4 181.9 -17.9Q181.4 -16.7 180.3 -14.9Q179.3 -13.2 178.2 -11.3Q177.1 -9.5 176.3 -7.9Q175.4 -6.3 175.3 -5.2Q176 -6 176.9 -7Q177.8 -8.1 178.7 -9.1Q179.5 -10.1 180.3 -11Q181 -11.8 181.4 -12.2Q182.3 -13.2 183.5 -14.4Q184.7 -15.6 186 -16.7Q187.3 -17.8 188.6 -18.5Q190 -19.3 191.1 -19.3Q192.3 -19.3 193.1 -18.5Q193.9 -17.7 194.3 -16.8Q194.3 -16.7 194 -16.5Q193.7 -16.4 193 -15.6Q192.4 -14.8 191.6 -13.4Q190.8 -11.9 190 -10.2Q189.2 -8.6 188.7 -6.8Q188.2 -5.1 188.2 -3.6Q188.2 -2.5 188.5 -2.2Q188.8 -1.8 189.4 -1.8Q189.9 -1.8 190.4 -2.1Q191 -2.3 191.3 -2.3Q191.5 -2.2 191.6 -1.9Q191.7 -1.6 191.7 -1.4Q191.4 -1.1 190.9 -0.7Q190.3 -0.4 189.8 -0.1Q189.2 0.1 188.7 0.3Q188.2 0.5 187.8 0.5Q186.4 0.5 185.6 0.1Q184.7 -0.3 184.3 -0.9Q183.8 -1.6 183.6 -2.5Q183.4 -3.4 183.4 -4.4Q183.4 -4.9 183.5 -5.6Q183.6 -6.3 183.9 -7.2Q184.1 -8.2 184.6 -9.5Q185.1 -10.8 185.9 -12.7Q185.8 -12.7 184.7 -12Q183.5 -11.4 182.2 -10Q180 -8 178.3 -5.9Q176.6 -3.9 174.8 -1.4Q173.8 0 173 1Q172.3 2 171.7 2.3Q170.8 1.7 170.3 0.8Q169.8 -0.2 169.6 -1.3Q169.6 -2.2 169.9 -3.5Q170.1 -4.8 170.5 -6.5Q171 -8.1 171.6 -9.9Q172.3 -11.7 173.1 -13.5Q174.8 -17.5 176.2 -19.8Q177.7 -22.1 178.1 -22.3ZM211.9 -19Q211.7 -16.2 210.9 -14.1Q210.1 -12.1 208.5 -10.6Q207 -9 204.8 -7.8Q202.6 -6.5 199.6 -5.4Q199.6 -5.1 199.6 -4.8Q199.6 -4.5 199.6 -4.2Q199.6 -3.6 199.7 -2.9Q199.8 -2.3 200 -1.7Q200.2 -1.2 200.7 -0.9Q201.1 -0.5 201.7 -0.5Q203 -0.5 204.1 -1.1Q205.3 -1.6 206.4 -2.4Q207.5 -3.2 208.4 -4.2Q209.4 -5.1 210.1 -5.9Q210.6 -5.5 210.9 -5.1Q208.8 -2.3 206.4 -0.5Q203.9 1.3 201.7 1.8Q198.5 1.4 196.8 -0.5Q195 -2.5 195 -5.2Q195 -7.1 195.5 -9.1Q196.1 -11 197 -12.9Q197.9 -14.7 199.2 -16.3Q200.5 -17.9 201.9 -19.1Q203.4 -20.3 204.9 -21Q206.4 -21.7 208 -21.7Q210.1 -21.4 211.9 -19ZM208.7 -17.5Q207.5 -17.3 206.2 -16.5Q204.8 -15.7 203.7 -14.3Q202.5 -12.9 201.5 -11.1Q200.6 -9.2 200 -7.1Q203.7 -9 206.1 -11.7Q208.6 -14.4 208.7 -17.5ZM214.3 -8.1Q214.3 -10.7 215.4 -13.2Q216.5 -15.6 218.2 -17.5Q220 -19.5 222.3 -20.6Q224.6 -21.8 227 -21.8Q229.4 -21.8 230.7 -20.6Q232 -19.4 232 -17.2Q232 -16.1 231.7 -15.2Q231.4 -14.2 230.9 -13.4Q230.4 -12.6 229.8 -12.1Q229.1 -11.6 228.5 -11.6Q227.9 -11.6 227.4 -12Q226.8 -12.3 226.4 -12.9Q229.5 -15.7 229.5 -18Q229.5 -19.3 228.4 -19.3Q227.5 -19.3 226.1 -18.4Q224.8 -17.6 223.5 -16.1Q221.5 -13.9 220.5 -11.2Q219.4 -8.6 219.4 -5.6Q219.4 -1.9 221.1 -1.1Q221.8 -1.2 222.7 -1.6Q223.6 -1.9 224.7 -2.4Q225.7 -2.9 226.8 -3.6Q228 -4.3 229 -5.1Q229.2 -5 229.4 -4.7Q229.5 -4.4 229.5 -4.2Q228.7 -3.2 227.7 -2.3Q226.7 -1.4 225.6 -0.6Q224.5 0.1 223.4 0.7Q222.4 1.2 221.6 1.3Q220.1 1.2 218.8 0.4Q217.4 -0.4 216.5 -1.7Q215.5 -3 214.9 -4.6Q214.3 -6.3 214.3 -8.1ZM236.1 -17.6Q235.8 -17.9 235.7 -18.8Q235.5 -19.7 235.5 -20.3Q236.7 -20.2 237.8 -20.2Q238.9 -20.1 239.8 -20.1Q240.5 -21.4 241.3 -22.8Q242.1 -24.1 242.9 -25.3Q243.6 -26.4 244.3 -27.2Q244.9 -28 245.3 -28.2Q245.8 -28.2 246.5 -28Q247.2 -27.9 247.9 -27.6Q248.7 -27.4 249.3 -27.1Q249.9 -26.8 250.1 -26.5Q248.7 -24.8 247.7 -23.3Q246.7 -21.8 245.6 -19.9Q246.5 -19.9 247.5 -19.9Q248.4 -20 249.4 -20.1Q249.6 -19.8 249.7 -19.5Q249.9 -19.1 249.9 -18.8Q247.6 -17.9 244.4 -17.8Q243.2 -15.6 242.4 -13.5Q241.5 -11.3 240.8 -9.2Q240.2 -7.2 239.9 -5.4Q239.5 -3.6 239.5 -2.2Q239.5 -0.2 241 0Q242.4 -0.1 243.7 -0.6Q244.9 -1.1 245.9 -1.9Q246.1 -1.5 246.2 -1.2Q245.9 -0.8 245.2 -0.3Q244.6 0.3 243.8 0.8Q243 1.3 242.3 1.7Q241.5 2.1 241.2 2.1Q240 2.1 238.9 1.6Q237.7 1.1 236.8 0.5Q235.8 -0.2 235.2 -1.1Q234.6 -1.9 234.6 -2.8Q234.6 -3.9 234.9 -5.5Q235.2 -7.2 235.8 -9.2Q236.3 -11.2 237.1 -13.3Q237.8 -15.5 238.7 -17.6Z" fill="#8d192b"/></g></g>
<rect x="321" y="40" width="631" height="3" rx="1.5" fill="#d6b2b3"/></svg>